<?xml version="1.0" standalone="no"?><!DOCTYPE svg PUBLIC "-//W3C//DTD SVG 1.1//EN" "http://www.w3.org/Graphics/SVG/1.1/DTD/svg11.dtd"><svg t="1583305679929" class="icon" viewBox="0 0 1039 1024" version="1.1" xmlns="http://www.w3.org/2000/svg" p-id="4557" xmlns:xlink="http://www.w3.org/1999/xlink" width="42.615234375" height="42"><defs><style type="text/css"></style></defs><path d="M861.305982 1024H157.806439A157.962425 157.962425 0 0 1 0 866.193561V191.551539a138.672083 138.672083 0 0 1 138.516096-138.308115h316.236824a25.997766 25.997766 0 0 1 0 51.995532H138.516096A86.624556 86.624556 0 0 0 51.995532 191.551539v674.642022a105.914898 105.914898 0 0 0 105.810907 105.810907h703.499543A105.914898 105.914898 0 0 0 967.116888 866.193561v-300.274195a25.997766 25.997766 0 0 1 51.995532 0v300.170204a157.962425 157.962425 0 0 1-157.806438 157.91043z" p-id="4558" fill="#606060"></path><path d="M1031.487357 235.539758L803.538946 7.591348a25.997766 25.997766 0 0 0-36.760841 36.76084l183.544227 183.596223H761.734538a502.328831 502.328831 0 0 0-501.75688 501.75688v112.154362a25.997766 25.997766 0 0 0 51.995532 0v-112.154362a450.281304 450.281304 0 0 1 449.761348-449.761349h188.587794l-183.596223 183.596223a25.997766 25.997766 0 0 0 36.760841 36.76084l227.948411-227.94841a25.997766 25.997766 0 0 0 0.051996-36.812837z" p-id="4559" fill="#606060"></path></svg>